<svg xmlns="http://www.w3.org/2000/svg" viewBox="0 0 600 120" width="600" height="120">
  <defs>
    <linearGradient id="bg" x1="0%" y1="0%" x2="100%" y2="100%">
      <stop offset="0%" style="stop-color:#FFF8F0"/>
      <stop offset="100%" style="stop-color:#FFE0D0"/>
    </linearGradient>
  </defs>
  <rect width="600" height="120" rx="16" fill="url(#bg)"/>
  <line x1="15" y1="70" x2="585" y2="70" stroke="#FF6B9D" stroke-width="3" stroke-linecap="round"/>

  <!-- 1-10 -->
  <line x1="30" y1="60" x2="30" y2="80" stroke="#FF6B9D" stroke-width="1.5"/>
  <text x="30" y="55" text-anchor="middle" font-family="Fredoka, sans-serif" font-size="11" font-weight="700" fill="#333">1</text>
  <circle cx="30" cy="70" r="4" fill="#4ECDC4"/>

  <line x1="60" y1="60" x2="60" y2="80" stroke="#FF6B9D" stroke-width="1.5"/>
  <text x="60" y="55" text-anchor="middle" font-family="Fredoka, sans-serif" font-size="11" font-weight="700" fill="#333">2</text>
  <circle cx="60" cy="70" r="4" fill="#4ECDC4"/>

  <line x1="90" y1="60" x2="90" y2="80" stroke="#FF6B9D" stroke-width="1.5"/>
  <text x="90" y="55" text-anchor="middle" font-family="Fredoka, sans-serif" font-size="11" font-weight="700" fill="#333">3</text>
  <circle cx="90" cy="70" r="4" fill="#4ECDC4"/>

  <line x1="120" y1="60" x2="120" y2="80" stroke="#FF6B9D" stroke-width="1.5"/>
  <text x="120" y="55" text-anchor="middle" font-family="Fredoka, sans-serif" font-size="11" font-weight="700" fill="#333">4</text>
  <circle cx="120" cy="70" r="4" fill="#4ECDC4"/>

  <line x1="150" y1="60" x2="150" y2="80" stroke="#FF6B9D" stroke-width="1.5"/>
  <text x="150" y="55" text-anchor="middle" font-family="Fredoka, sans-serif" font-size="11" font-weight="700" fill="#333">5</text>
  <circle cx="150" cy="70" r="4" fill="#4ECDC4"/>

  <line x1="180" y1="60" x2="180" y2="80" stroke="#FF6B9D" stroke-width="1.5"/>
  <text x="180" y="55" text-anchor="middle" font-family="Fredoka, sans-serif" font-size="11" font-weight="700" fill="#333">6</text>
  <circle cx="180" cy="70" r="4" fill="#4ECDC4"/>

  <line x1="210" y1="60" x2="210" y2="80" stroke="#FF6B9D" stroke-width="1.5"/>
  <text x="210" y="55" text-anchor="middle" font-family="Fredoka, sans-serif" font-size="11" font-weight="700" fill="#333">7</text>
  <circle cx="210" cy="70" r="4" fill="#4ECDC4"/>

  <line x1="240" y1="60" x2="240" y2="80" stroke="#FF6B9D" stroke-width="1.5"/>
  <text x="240" y="55" text-anchor="middle" font-family="Fredoka, sans-serif" font-size="11" font-weight="700" fill="#333">8</text>
  <circle cx="240" cy="70" r="4" fill="#4ECDC4"/>

  <line x1="270" y1="60" x2="270" y2="80" stroke="#FF6B9D" stroke-width="1.5"/>
  <text x="270" y="55" text-anchor="middle" font-family="Fredoka, sans-serif" font-size="11" font-weight="700" fill="#333">9</text>
  <circle cx="270" cy="70" r="4" fill="#4ECDC4"/>

  <line x1="300" y1="60" x2="300" y2="80" stroke="#FF6B9D" stroke-width="1.5"/>
  <text x="300" y="55" text-anchor="middle" font-family="Fredoka, sans-serif" font-size="11" font-weight="700" fill="#333">10</text>
  <circle cx="300" cy="70" r="4" fill="#4ECDC4"/>

  <!-- 11-20 -->
  <line x1="330" y1="60" x2="330" y2="80" stroke="#FF6B9D" stroke-width="1.5"/>
  <text x="330" y="55" text-anchor="middle" font-family="Fredoka, sans-serif" font-size="11" font-weight="700" fill="#333">11</text>
  <circle cx="330" cy="70" r="4" fill="#FFD93D"/>

  <line x1="360" y1="60" x2="360" y2="80" stroke="#FF6B9D" stroke-width="1.5"/>
  <text x="360" y="55" text-anchor="middle" font-family="Fredoka, sans-serif" font-size="11" font-weight="700" fill="#333">12</text>
  <circle cx="360" cy="70" r="4" fill="#FFD93D"/>

  <line x1="390" y1="60" x2="390" y2="80" stroke="#FF6B9D" stroke-width="1.5"/>
  <text x="390" y="55" text-anchor="middle" font-family="Fredoka, sans-serif" font-size="11" font-weight="700" fill="#333">13</text>
  <circle cx="390" cy="70" r="4" fill="#FFD93D"/>

  <line x1="420" y1="60" x2="420" y2="80" stroke="#FF6B9D" stroke-width="1.5"/>
  <text x="420" y="55" text-anchor="middle" font-family="Fredoka, sans-serif" font-size="11" font-weight="700" fill="#333">14</text>
  <circle cx="420" cy="70" r="4" fill="#FFD93D"/>

  <line x1="450" y1="60" x2="450" y2="80" stroke="#FF6B9D" stroke-width="1.5"/>
  <text x="450" y="55" text-anchor="middle" font-family="Fredoka, sans-serif" font-size="11" font-weight="700" fill="#333">15</text>
  <circle cx="450" cy="70" r="4" fill="#FFD93D"/>

  <line x1="480" y1="60" x2="480" y2="80" stroke="#FF6B9D" stroke-width="1.5"/>
  <text x="480" y="55" text-anchor="middle" font-family="Fredoka, sans-serif" font-size="11" font-weight="700" fill="#333">16</text>
  <circle cx="480" cy="70" r="4" fill="#FFD93D"/>

  <line x1="510" y1="60" x2="510" y2="80" stroke="#FF6B9D" stroke-width="1.5"/>
  <text x="510" y="55" text-anchor="middle" font-family="Fredoka, sans-serif" font-size="11" font-weight="700" fill="#333">17</text>
  <circle cx="510" cy="70" r="4" fill="#FFD93D"/>

  <line x1="540" y1="60" x2="540" y2="80" stroke="#FF6B9D" stroke-width="1.5"/>
  <text x="540" y="55" text-anchor="middle" font-family="Fredoka, sans-serif" font-size="11" font-weight="700" fill="#333">18</text>
  <circle cx="540" cy="70" r="4" fill="#FFD93D"/>

  <line x1="570" y1="60" x2="570" y2="80" stroke="#FF6B9D" stroke-width="1.5"/>
  <text x="570" y="55" text-anchor="middle" font-family="Fredoka, sans-serif" font-size="11" font-weight="700" fill="#333">19</text>
  <circle cx="570" cy="70" r="4" fill="#FFD93D"/>

  <!-- 20 -->
  <line x1="585" y1="60" x2="585" y2="80" stroke="#FF6B9D" stroke-width="2"/>
  <text x="585" y="55" text-anchor="middle" font-family="Fredoka, sans-serif" font-size="12" font-weight="700" fill="#FF6B9D">20</text>
  <circle cx="585" cy="70" r="5" fill="#FF6B9D"/>

  <text x="300" y="105" text-anchor="middle" font-family="Fredoka, sans-serif" font-size="14" fill="#777">Number Line 1–20</text>
</svg>
