<svg xmlns="http://www.w3.org/2000/svg" viewBox="0 0 600 200" width="600" height="200">
  <defs>
    <linearGradient id="bg" x1="0%" y1="0%" x2="100%" y2="100%">
      <stop offset="0%" style="stop-color:#FFF8F0"/>
      <stop offset="100%" style="stop-color:#FFE0D0"/>
    </linearGradient>
  </defs>
  <rect width="600" height="200" rx="16" fill="url(#bg)"/>
  <text x="300" y="28" text-anchor="middle" font-family="Fredoka, sans-serif" font-size="16" font-weight="700" fill="#FF6B9D">Ten Frames — Counting to 100 by Tens</text>

  <!-- 10 ten frames in 2 rows -->
  <!-- Row 1: 10, 20, 30, 40, 50 -->
  <g transform="translate(10, 40)">
    <rect x="0" y="0" width="100" height="60" rx="4" fill="none" stroke="#FF6B9D" stroke-width="1.5"/>
    <line x1="50" y1="0" x2="50" y2="60" stroke="#FF6B9D" stroke-width="1" stroke-dasharray="3,3"/>
    <line x1="0" y1="30" x2="100" y2="30" stroke="#FF6B9D" stroke-width="1" stroke-dasharray="3,3"/>
    <circle cx="18" cy="15" r="5" fill="#4ECDC4"/><circle cx="42" cy="15" r="5" fill="#4ECDC4"/>
    <circle cx="68" cy="15" r="5" fill="#4ECDC4"/><circle cx="88" cy="15" r="5" fill="#4ECDC4"/>
    <circle cx="18" cy="45" r="5" fill="#4ECDC4"/><circle cx="42" cy="45" r="5" fill="#4ECDC4"/>
    <circle cx="68" cy="45" r="5" fill="#4ECDC4"/><circle cx="88" cy="45" r="5" fill="#4ECDC4"/>
    <text x="50" y="78" text-anchor="middle" font-family="Fredoka, sans-serif" font-size="12" font-weight="700" fill="#333">10</text>
  </g>
  <g transform="translate(120, 40)">
    <rect x="0" y="0" width="100" height="60" rx="4" fill="none" stroke="#FF6B9D" stroke-width="1.5"/>
    <line x1="50" y1="0" x2="50" y2="60" stroke="#FF6B9D" stroke-width="1" stroke-dasharray="3,3"/>
    <line x1="0" y1="30" x2="100" y2="30" stroke="#FF6B9D" stroke-width="1" stroke-dasharray="3,3"/>
    <circle cx="18" cy="15" r="5" fill="#4ECDC4"/><circle cx="42" cy="15" r="5" fill="#4ECDC4"/>
    <circle cx="68" cy="15" r="5" fill="#4ECDC4"/><circle cx="88" cy="15" r="5" fill="#4ECDC4"/>
    <circle cx="18" cy="45" r="5" fill="#4ECDC4"/><circle cx="42" cy="45" r="5" fill="#4ECDC4"/>
    <circle cx="68" cy="45" r="5" fill="#4ECDC4"/><circle cx="88" cy="45" r="5" fill="#4ECDC4"/>
    <text x="50" y="78" text-anchor="middle" font-family="Fredoka, sans-serif" font-size="12" font-weight="700" fill="#333">20</text>
  </g>
  <g transform="translate(230, 40)">
    <rect x="0" y="0" width="100" height="60" rx="4" fill="none" stroke="#FF6B9D" stroke-width="1.5"/>
    <line x1="50" y1="0" x2="50" y2="60" stroke="#FF6B9D" stroke-width="1" stroke-dasharray="3,3"/>
    <line x1="0" y1="30" x2="100" y2="30" stroke="#FF6B9D" stroke-width="1" stroke-dasharray="3,3"/>
    <circle cx="18" cy="15" r="5" fill="#4ECDC4"/><circle cx="42" cy="15" r="5" fill="#4ECDC4"/>
    <circle cx="68" cy="15" r="5" fill="#4ECDC4"/><circle cx="88" cy="15" r="5" fill="#4ECDC4"/>
    <circle cx="18" cy="45" r="5" fill="#4ECDC4"/><circle cx="42" cy="45" r="5" fill="#4ECDC4"/>
    <circle cx="68" cy="45" r="5" fill="#4ECDC4"/><circle cx="88" cy="45" r="5" fill="#4ECDC4"/>
    <text x="50" y="78" text-anchor="middle" font-family="Fredoka, sans-serif" font-size="12" font-weight="700" fill="#333">30</text>
  </g>
  <g transform="translate(340, 40)">
    <rect x="0" y="0" width="100" height="60" rx="4" fill="none" stroke="#FF6B9D" stroke-width="1.5"/>
    <line x1="50" y1="0" x2="50" y2="60" stroke="#FF6B9D" stroke-width="1" stroke-dasharray="3,3"/>
    <line x1="0" y1="30" x2="100" y2="30" stroke="#FF6B9D" stroke-width="1" stroke-dasharray="3,3"/>
    <circle cx="18" cy="15" r="5" fill="#4ECDC4"/><circle cx="42" cy="15" r="5" fill="#4ECDC4"/>
    <circle cx="68" cy="15" r="5" fill="#4ECDC4"/><circle cx="88" cy="15" r="5" fill="#4ECDC4"/>
    <circle cx="18" cy="45" r="5" fill="#4ECDC4"/><circle cx="42" cy="45" r="5" fill="#4ECDC4"/>
    <circle cx="68" cy="45" r="5" fill="#4ECDC4"/><circle cx="88" cy="45" r="5" fill="#4ECDC4"/>
    <text x="50" y="78" text-anchor="middle" font-family="Fredoka, sans-serif" font-size="12" font-weight="700" fill="#333">40</text>
  </g>
  <g transform="translate(450, 40)">
    <rect x="0" y="0" width="100" height="60" rx="4" fill="none" stroke="#FF6B9D" stroke-width="1.5"/>
    <line x1="50" y1="0" x2="50" y2="60" stroke="#FF6B9D" stroke-width="1" stroke-dasharray="3,3"/>
    <line x1="0" y1="30" x2="100" y2="30" stroke="#FF6B9D" stroke-width="1" stroke-dasharray="3,3"/>
    <circle cx="18" cy="15" r="5" fill="#4ECDC4"/><circle cx="42" cy="15" r="5" fill="#4ECDC4"/>
    <circle cx="68" cy="15" r="5" fill="#4ECDC4"/><circle cx="88" cy="15" r="5" fill="#4ECDC4"/>
    <circle cx="18" cy="45" r="5" fill="#4ECDC4"/><circle cx="42" cy="45" r="5" fill="#4ECDC4"/>
    <circle cx="68" cy="45" r="5" fill="#4ECDC4"/><circle cx="88" cy="45" r="5" fill="#4ECDC4"/>
    <text x="50" y="78" text-anchor="middle" font-family="Fredoka, sans-serif" font-size="12" font-weight="700" fill="#333">50</text>
  </g>

  <!-- Row 2: 60, 70, 80, 90, 100 -->
  <g transform="translate(10, 120)">
    <rect x="0" y="0" width="100" height="60" rx="4" fill="none" stroke="#FF6B9D" stroke-width="1.5"/>
    <line x1="50" y1="0" x2="50" y2="60" stroke="#FF6B9D" stroke-width="1" stroke-dasharray="3,3"/>
    <line x1="0" y1="30" x2="100" y2="30" stroke="#FF6B9D" stroke-width="1" stroke-dasharray="3,3"/>
    <circle cx="18" cy="15" r="5" fill="#FFD93D"/><circle cx="42" cy="15" r="5" fill="#FFD93D"/>
    <circle cx="68" cy="15" r="5" fill="#FFD93D"/><circle cx="88" cy="15" r="5" fill="#FFD93D"/>
    <circle cx="18" cy="45" r="5" fill="#FFD93D"/><circle cx="42" cy="45" r="5" fill="#FFD93D"/>
    <circle cx="68" cy="45" r="5" fill="#FFD93D"/><circle cx="88" cy="45" r="5" fill="#FFD93D"/>
    <text x="50" y="78" text-anchor="middle" font-family="Fredoka, sans-serif" font-size="12" font-weight="700" fill="#333">60</text>
  </g>
  <g transform="translate(120, 120)">
    <rect x="0" y="0" width="100" height="60" rx="4" fill="none" stroke="#FF6B9D" stroke-width="1.5"/>
    <line x1="50" y1="0" x2="50" y2="60" stroke="#FF6B9D" stroke-width="1" stroke-dasharray="3,3"/>
    <line x1="0" y1="30" x2="100" y2="30" stroke="#FF6B9D" stroke-width="1" stroke-dasharray="3,3"/>
    <circle cx="18" cy="15" r="5" fill="#FFD93D"/><circle cx="42" cy="15" r="5" fill="#FFD93D"/>
    <circle cx="68" cy="15" r="5" fill="#FFD93D"/><circle cx="88" cy="15" r="5" fill="#FFD93D"/>
    <circle cx="18" cy="45" r="5" fill="#FFD93D"/><circle cx="42" cy="45" r="5" fill="#FFD93D"/>
    <circle cx="68" cy="45" r="5" fill="#FFD93D"/><circle cx="88" cy="45" r="5" fill="#FFD93D"/>
    <text x="50" y="78" text-anchor="middle" font-family="Fredoka, sans-serif" font-size="12" font-weight="700" fill="#333">70</text>
  </g>
  <g transform="translate(230, 120)">
    <rect x="0" y="0" width="100" height="60" rx="4" fill="none" stroke="#FF6B9D" stroke-width="1.5"/>
    <line x1="50" y1="0" x2="50" y2="60" stroke="#FF6B9D" stroke-width="1" stroke-dasharray="3,3"/>
    <line x1="0" y1="30" x2="100" y2="30" stroke="#FF6B9D" stroke-width="1" stroke-dasharray="3,3"/>
    <circle cx="18" cy="15" r="5" fill="#FFD93D"/><circle cx="42" cy="15" r="5" fill="#FFD93D"/>
    <circle cx="68" cy="15" r="5" fill="#FFD93D"/><circle cx="88" cy="15" r="5" fill="#FFD93D"/>
    <circle cx="18" cy="45" r="5" fill="#FFD93D"/><circle cx="42" cy="45" r="5" fill="#FFD93D"/>
    <circle cx="68" cy="45" r="5" fill="#FFD93D"/><circle cx="88" cy="45" r="5" fill="#FFD93D"/>
    <text x="50" y="78" text-anchor="middle" font-family="Fredoka, sans-serif" font-size="12" font-weight="700" fill="#333">80</text>
  </g>
  <g transform="translate(340, 120)">
    <rect x="0" y="0" width="100" height="60" rx="4" fill="none" stroke="#FF6B9D" stroke-width="1.5"/>
    <line x1="50" y1="0" x2="50" y2="60" stroke="#FF6B9D" stroke-width="1" stroke-dasharray="3,3"/>
    <line x1="0" y1="30" x2="100" y2="30" stroke="#FF6B9D" stroke-width="1" stroke-dasharray="3,3"/>
    <circle cx="18" cy="15" r="5" fill="#FFD93D"/><circle cx="42" cy="15" r="5" fill="#FFD93D"/>
    <circle cx="68" cy="15" r="5" fill="#FFD93D"/><circle cx="88" cy="15" r="5" fill="#FFD93D"/>
    <circle cx="18" cy="45" r="5" fill="#FFD93D"/><circle cx="42" cy="45" r="5" fill="#FFD93D"/>
    <circle cx="68" cy="45" r="5" fill="#FFD93D"/><circle cx="88" cy="45" r="5" fill="#FFD93D"/>
    <text x="50" y="78" text-anchor="middle" font-family="Fredoka, sans-serif" font-size="12" font-weight="700" fill="#333">90</text>
  </g>
  <g transform="translate(450, 120)">
    <rect x="0" y="0" width="100" height="60" rx="4" fill="none" stroke="#FF6B9D" stroke-width="2"/>
    <line x1="50" y1="0" x2="50" y2="60" stroke="#FF6B9D" stroke-width="1" stroke-dasharray="3,3"/>
    <line x1="0" y1="30" x2="100" y2="30" stroke="#FF6B9D" stroke-width="1" stroke-dasharray="3,3"/>
    <circle cx="18" cy="15" r="5" fill="#FF6B9D"/><circle cx="42" cy="15" r="5" fill="#FF6B9D"/>
    <circle cx="68" cy="15" r="5" fill="#FF6B9D"/><circle cx="88" cy="15" r="5" fill="#FF6B9D"/>
    <circle cx="18" cy="45" r="5" fill="#FF6B9D"/><circle cx="42" cy="45" r="5" fill="#FF6B9D"/>
    <circle cx="68" cy="45" r="5" fill="#FF6B9D"/><circle cx="88" cy="45" r="5" fill="#FF6B9D"/>
    <text x="50" y="78" text-anchor="middle" font-family="Fredoka, sans-serif" font-size="12" font-weight="700" fill="#FF6B9D">100</text>
  </g>
</svg>
