<svg width="300" height="200" xmlns="http://www.w3.org/2000/svg">
  <!-- Background -->
  <rect width="100%" height="100%" fill="#f0f8ff"/>
  
  <!-- Jewels -->
  <circle cx="50" cy="50" r="15" fill="#ff6b6b"/>
  <circle cx="90" cy="60" r="15" fill="#4ecdc4"/>
  <circle cx="130" cy="50" r="15" fill="#ff6b6b"/>
  <circle cx="170" cy="60" r="15" fill="#4ecdc4"/>
  <circle cx="210" cy="50" r="15" fill="#ff6b6b"/>
  <circle cx="250" cy="60" r="15" fill="#4ecdc4"/>
  
  <circle cx="70" cy="100" r="15" fill="#4ecdc4"/>
  <circle cx="110" cy="110" r="15" fill="#ff6b6b"/>
  <circle cx="150" cy="100" r="15" fill="#4ecdc4"/>
  <circle cx="190" cy="110" r="15" fill="#ff6b6b"/>
  <circle cx="230" cy="100" r="15" fill="#4ecdc4"/>
  
  <circle cx="90" cy="150" r="15" fill="#ff6b6b"/>
  <circle cx="130" cy="160" r="15" fill="#4ecdc4"/>
  <circle cx="170" cy="150" r="15" fill="#ff6b6b"/>
  <circle cx="210" cy="160" r="15" fill="#4ecdc4"/>
  
  <!-- Sparkles -->
  <circle cx="55" cy="45" r="2" fill="white"/>
  <circle cx="135" cy="45" r="2" fill="white"/>
  <circle cx="215" cy="45" r="2" fill="white"/>
  <circle cx="75" cy="95" r="2" fill="white"/>
  <circle cx="155" cy="95" r="2" fill="white"/>
  <circle cx="235" cy="95" r="2" fill="white"/>
  <circle cx="95" cy="145" r="2" fill="white"/>
  <circle cx="175" cy="145" r="2" fill="white"/>
</svg>