<svg width="300" height="300" xmlns="http://www.w3.org/2000/svg">
  <!-- Background -->
  <rect width="100%" height="100%" fill="#f9f9f9"/>
  
  <!-- Grid lines -->
  <g stroke="#ccc" stroke-width="0.5">
    <!-- Vertical lines -->
    <line x1="0" y1="0" x2="0" y2="300"/>
    <line x1="30" y1="0" x2="30" y2="300"/>
    <line x1="60" y1="0" x2="60" y2="300"/>
    <line x1="90" y1="0" x2="90" y2="300"/>
    <line x1="120" y1="0" x2="120" y2="300"/>
    <line x1="150" y1="0" x2="150" y2="300"/>
    <line x1="180" y1="0" x2="180" y2="300"/>
    <line x1="210" y1="0" x2="210" y2="300"/>
    <line x1="240" y1="0" x2="240" y2="300"/>
    <line x1="270" y1="0" x2="270" y2="300"/>
    <line x1="300" y1="0" x2="300" y2="300"/>
    
    <!-- Horizontal lines -->
    <line x1="0" y1="0" x2="300" y2="0"/>
    <line x1="0" y1="30" x2="300" y2="30"/>
    <line x1="0" y1="60" x2="300" y2="60"/>
    <line x1="0" y1="90" x2="300" y2="90"/>
    <line x1="0" y1="120" x2="300" y2="120"/>
    <line x1="0" y1="150" x2="300" y2="150"/>
    <line x1="0" y1="180" x2="300" y2="180"/>
    <line x1="0" y1="210" x2="300" y2="210"/>
    <line x1="0" y1="240" x2="300" y2="240"/>
    <line x1="0" y1="270" x2="300" y2="270"/>
    <line x1="0" y1="300" x2="300" y2="300"/>
  </g>
  
  <!-- Numbers -->
  <g font-family="Fredoka" font-size="12" text-anchor="middle">
    <!-- Row 1 -->
    <text x="15" y="20">1</text>
    <text x="45" y="20">2</text>
    <text x="75" y="20">3</text>
    <text x="105" y="20">4</text>
    <text x="135" y="20">5</text>
    <text x="165" y="20">6</text>
    <text x="195" y="20">7</text>
    <text x="225" y="20">8</text>
    <text x="255" y="20">9</text>
    <text x="285" y="20">10</text>
    
    <!-- Row 2 -->
    <text x="15" y="50">11</text>
    <text x="45" y="50">12</text>
    <text x="75" y="50">13</text>
    <text x="105" y="50">14</text>
    <text x="135" y="50">15</text>
    <text x="165" y="50">16</text>
    <text x="195" y="50">17</text>
    <text x="225" y="50">18</text>
    <text x="255" y="50">19</text>
    <text x="285" y="50">20</text>
    
    <!-- Row 3 -->
    <text x="15" y="80">21</text>
    <text x="45" y="80">22</text>
    <text x="75" y="80">23</text>
    <text x="105" y="80">24</text>
    <text x="135" y="80">25</text>
    <text x="165" y="80">26</text>
    <text x="195" y="80">27</text>
    <text x="225" y="80">28</text>
    <text x="255" y="80">29</text>
    <text x="285" y="80">30</text>
    
    <!-- Row 4 -->
    <text x="15" y="110">31</text>
    <text x="45" y="110">32</text>
    <text x="75" y="110">33</text>
    <text x="105" y="110">34</text>
    <text x="135" y="110">35</text>
    <text x="165" y="110">36</text>
    <text x="195" y="110">37</text>
    <text x="225" y="110">38</text>
    <text x="255" y="110">39</text>
    <text x="285" y="110">40</text>
    
    <!-- Row 5 -->
    <text x="15" y="140">41</text>
    <text x="45" y="140">42</text>
    <text x="75" y="140">43</text>
    <text x="105" y="140">44</text>
    <text x="135" y="140">45</text>
    <text x="165" y="140">46</text>
    <text x="195" y="140">47</text>
    <text x="225" y="140">48</text>
    <text x="255" y="140">49</text>
    <text x="285" y="140">50</text>
    
    <!-- Row 6 -->
    <text x="15" y="170">51</text>
    <text x="45" y="170">52</text>
    <text x="75" y="170">53</text>
    <text x="105" y="170">54</text>
    <text x="135" y="170">55</text>
    <text x="165" y="170">56</text>
    <text x="195" y="170">57</text>
    <text x="225" y="170">58</text>
    <text x="255" y="170">59</text>
    <text x="285" y="170">60</text>
    
    <!-- Row 7 -->
    <text x="15" y="200">61</text>
    <text x="45" y="200">62</text>
    <text x="75" y="200">63</text>
    <text x="105" y="200">64</text>
    <text x="135" y="200">65</text>
    <text x="165" y="200">66</text>
    <text x="195" y="200">67</text>
    <text x="225" y="200">68</text>
    <text x="255" y="200">69</text>
    <text x="285" y="200">70</text>
    
    <!-- Row 8 -->
    <text x="15" y="230">71</text>
    <text x="45" y="230">72</text>
    <text x="75" y="230">73</text>
    <text x="105" y="230">74</text>
    <text x="135" y="230">75</text>
    <text x="165" y="230">76</text>
    <text x="195" y="230">77</text>
    <text x="225" y="230">78</text>
    <text x="255" y="230">79</text>
    <text x="285" y="230">80</text>
    
    <!-- Row 9 -->
    <text x="15" y="260">81</text>
    <text x="45" y="260">82</text>
    <text x="75" y="260">83</text>
    <text x="105" y="260">84</text>
    <text x="135" y="260">85</text>
    <text x="165" y="260">86</text>
    <text x="195" y="260">87</text>
    <text x="225" y="260">88</text>
    <text x="255" y="260">89</text>
    <text x="285" y="260">90</text>
    
    <!-- Row 10 -->
    <text x="15" y="290">91</text>
    <text x="45" y="290">92</text>
    <text x="75" y="290">93</text>
    <text x="105" y="290">94</text>
    <text x="135" y="290">95</text>
    <text x="165" y="290">96</text>
    <text x="195" y="290">97</text>
    <text x="225" y="290">98</text>
    <text x="255" y="290">99</text>
    <text x="285" y="290">100</text>
  </g>
</svg>