<svg width="600" height="100" xmlns="http://www.w3.org/2000/svg">
  <line x1="10" y1="50" x2="590" y2="50" stroke="black" stroke-width="2"/>
  <!-- Dots for numbers 1-20 -->
  <circle cx="10" cy="50" r="3" fill="#4CAF50"/>
  <circle cx="40" cy="50" r="3" fill="#4CAF50"/>
  <circle cx="70" cy="50" r="3" fill="#4CAF50"/>
  <circle cx="100" cy="50" r="3" fill="#4CAF50"/>
  <circle cx="130" cy="50" r="3" fill="#4CAF50"/>
  <circle cx="160" cy="50" r="3" fill="#4CAF50"/>
  <circle cx="190" cy="50" r="3" fill="#4CAF50"/>
  <circle cx="220" cy="50" r="3" fill="#4CAF50"/>
  <circle cx="250" cy="50" r="3" fill="#4CAF50"/>
  <circle cx="280" cy="50" r="3" fill="#4CAF50"/>
  <circle cx="310" cy="50" r="3" fill="#4CAF50"/>
  <circle cx="340" cy="50" r="3" fill="#4CAF50"/>
  <circle cx="370" cy="50" r="3" fill="#4CAF50"/>
  <circle cx="400" cy="50" r="3" fill="#4CAF50"/>
  <circle cx="430" cy="50" r="3" fill="#4CAF50"/>
  <circle cx="460" cy="50" r="3" fill="#4CAF50"/>
  <circle cx="490" cy="50" r="3" fill="#4CAF50"/>
  <circle cx="520" cy="50" r="3" fill="#4CAF50"/>
  <circle cx="550" cy="50" r="3" fill="#4CAF50"/>
  <circle cx="580" cy="50" r="3" fill="#4CAF50"/>
  
  <!-- Labels for numbers 1-20 -->
  <text x="10" y="35" font-family="Fredoka" font-size="12" text-anchor="middle">1</text>
  <text x="40" y="35" font-family="Fredoka" font-size="12" text-anchor="middle">2</text>
  <text x="70" y="35" font-family="Fredoka" font-size="12" text-anchor="middle">3</text>
  <text x="100" y="35" font-family="Fredoka" font-size="12" text-anchor="middle">4</text>
  <text x="130" y="35" font-family="Fredoka" font-size="12" text-anchor="middle">5</text>
  <text x="160" y="35" font-family="Fredoka" font-size="12" text-anchor="middle">6</text>
  <text x="190" y="35" font-family="Fredoka" font-size="12" text-anchor="middle">7</text>
  <text x="220" y="35" font-family="Fredoka" font-size="12" text-anchor="middle">8</text>
  <text x="250" y="35" font-family="Fredoka" font-size="12" text-anchor="middle">9</text>
  <text x="280" y="35" font-family="Fredoka" font-size="12" text-anchor="middle">10</text>
  <text x="310" y="35" font-family="Fredoka" font-size="12" text-anchor="middle">11</text>
  <text x="340" y="35" font-family="Fredoka" font-size="12" text-anchor="middle">12</text>
  <text x="370" y="35" font-family="Fredoka" font-size="12" text-anchor="middle">13</text>
  <text x="400" y="35" font-family="Fredoka" font-size="12" text-anchor="middle">14</text>
  <text x="430" y="35" font-family="Fredoka" font-size="12" text-anchor="middle">15</text>
  <text x="460" y="35" font-family="Fredoka" font-size="12" text-anchor="middle">16</text>
  <text x="490" y="35" font-family="Fredoka" font-size="12" text-anchor="middle">17</text>
  <text x="520" y="35" font-family="Fredoka" font-size="12" text-anchor="middle">18</text>
  <text x="550" y="35" font-family="Fredoka" font-size="12" text-anchor="middle">19</text>
  <text x="580" y="35" font-family="Fredoka" font-size="12" text-anchor="middle">20</text>
</svg>