<svg width="300" height="400" xmlns="http://www.w3.org/2000/svg">
  <!-- Ten frames for counting to 100 (10 frames of 10) -->
  <!-- Frame 1 -->
  <rect x="10" y="10" width="80" height="30" fill="none" stroke="#444" stroke-width="1"/>
  <circle cx="20" cy="25" r="5" fill="#FF6B6B"/>
  <circle cx="30" cy="25" r="5" fill="#4ECDC4"/>
  <circle cx="40" cy="25" r="5" fill="#FF6B6B"/>
  <circle cx="50" cy="25" r="5" fill="#4ECDC4"/>
  <circle cx="60" cy="25" r="5" fill="#FF6B6B"/>
  <circle cx="70" cy="25" r="5" fill="#4ECDC4"/>
  <circle cx="80" cy="25" r="5" fill="#FF6B6B"/>
  <circle cx="90" cy="25" r="5" fill="#4ECDC4"/>
  <circle cx="100" cy="25" r="5" fill="#FF6B6B"/>
  <circle cx="110" cy="25" r="5" fill="#4ECDC4"/>
  
  <!-- Frame 2 -->
  <rect x="10" y="50" width="80" height="30" fill="none" stroke="#444" stroke-width="1"/>
  <circle cx="20" cy="65" r="5" fill="#4ECDC4"/>
  <circle cx="30" cy="65" r="5" fill="#FF6B6B"/>
  <circle cx="40" cy="65" r="5" fill="#4ECDC4"/>
  <circle cx="50" cy="65" r="5" fill="#FF6B6B"/>
  <circle cx="60" cy="65" r="5" fill="#4ECDC4"/>
  <circle cx="70" cy="65" r="5" fill="#FF6B6B"/>
  <circle cx="80" cy="65" r="5" fill="#4ECDC4"/>
  <circle cx="90" cy="65" r="5" fill="#FF6B6B"/>
  <circle cx="100" cy="65" r="5" fill="#4ECDC4"/>
  <circle cx="110" cy="65" r="5" fill="#FF6B6B"/>
  
  <!-- Frame 3 -->
  <rect x="10" y="90" width="80" height="30" fill="none" stroke="#444" stroke-width="1"/>
  <circle cx="20" cy="105" r="5" fill="#FF6B6B"/>
  <circle cx="30" cy="105" r="5" fill="#4ECDC4"/>
  <circle cx="40" cy="105" r="5" fill="#FF6B6B"/>
  <circle cx="50" cy="105" r="5" fill="#4ECDC4"/>
  <circle cx="60" cy="105" r="5" fill="#FF6B6B"/>
  <circle cx="70" cy="105" r="5" fill="#4ECDC4"/>
  <circle cx="80" cy="105" r="5" fill="#FF6B6B"/>
  <circle cx="90" cy="105" r="5" fill="#4ECDC4"/>
  <circle cx="100" cy="105" r="5" fill="#FF6B6B"/>
  <circle cx="110" cy="105" r="5" fill="#4ECDC4"/>
  
  <!-- Frame 4 -->
  <rect x="10" y="130" width="80" height="30" fill="none" stroke="#444" stroke-width="1"/>
  <circle cx="20" cy="145" r="5" fill="#4ECDC4"/>
  <circle cx="30" cy="145" r="5" fill="#FF6B6B"/>
  <circle cx="40" cy="145" r="5" fill="#4ECDC4"/>
  <circle cx="50" cy="145" r="5" fill="#FF6B6B"/>
  <circle cx="60" cy="145" r="5" fill="#4ECDC4"/>
  <circle cx="70" cy="145" r="5" fill="#FF6B6B"/>
  <circle cx="80" cy="145" r="5" fill="#4ECDC4"/>
  <circle cx="90" cy="145" r="5" fill="#FF6B6B"/>
  <circle cx="100" cy="145" r="5" fill="#4ECDC4"/>
  <circle cx="110" cy="145" r="5" fill="#FF6B6B"/>
  
  <!-- Frame 5 -->
  <rect x="10" y="170" width="80" height="30" fill="none" stroke="#444" stroke-width="1"/>
  <circle cx="20" cy="185" r="5" fill="#FF6B6B"/>
  <circle cx="30" cy="185" r="5" fill="#4ECDC4"/>
  <circle cx="40" cy="185" r="5" fill="#FF6B6B"/>
  <circle cx="50" cy="185" r="5" fill="#4ECDC4"/>
  <circle cx="60" cy="185" r="5" fill="#FF6B6B"/>
  <circle cx="70" cy="185" r="5" fill="#4ECDC4"/>
  <circle cx="80" cy="185" r="5" fill="#FF6B6B"/>
  <circle cx="90" cy="185" r="5" fill="#4ECDC4"/>
  <circle cx="100" cy="185" r="5" fill="#FF6B6B"/>
  <circle cx="110" cy="185" r="5" fill="#4ECDC4"/>
  
  <!-- Frame 6 -->
  <rect x="10" y="210" width="80" height="30" fill="none" stroke="#444" stroke-width="1"/>
  <circle cx="20" cy="225" r="5" fill="#4ECDC4"/>
  <circle cx="30" cy="225" r="5" fill="#FF6B6B"/>
  <circle cx="40" cy="225" r="5" fill="#4ECDC4"/>
  <circle cx="50" cy="225" r="5" fill="#FF6B6B"/>
  <circle cx="60" cy="225" r="5" fill="#4ECDC4"/>
  <circle cx="70" cy="225" r="5" fill="#FF6B6B"/>
  <circle cx="80" cy="225" r="5" fill="#4ECDC4"/>
  <circle cx="90" cy="225" r="5" fill="#FF6B6B"/>
  <circle cx="100" cy="225" r="5" fill="#4ECDC4"/>
  <circle cx="110" cy="225" r="5" fill="#FF6B6B"/>
  
  <!-- Frame 7 -->
  <rect x="10" y="250" width="80" height="30" fill="none" stroke="#444" stroke-width="1"/>
  <circle cx="20" cy="265" r="5" fill="#FF6B6B"/>
  <circle cx="30" cy="265" r="5" fill="#4ECDC4"/>
  <circle cx="40" cy="265" r="5" fill="#FF6B6B"/>
  <circle cx="50" cy="265" r="5" fill="#4ECDC4"/>
  <circle cx="60" cy="265" r="5" fill="#FF6B6B"/>
  <circle cx="70" cy="265" r="5" fill="#4ECDC4"/>
  <circle cx="80" cy="265" r="5" fill="#FF6B6B"/>
  <circle cx="90" cy="265" r="5" fill="#4ECDC4"/>
  <circle cx="100" cy="265" r="5" fill="#FF6B6B"/>
  <circle cx="110" cy="265" r="5" fill="#4ECDC4"/>
  
  <!-- Frame 8 -->
  <rect x="10" y="290" width="80" height="30" fill="none" stroke="#444" stroke-width="1"/>
  <circle cx="20" cy="305" r="5" fill="#4ECDC4"/>
  <circle cx="30" cy="305" r="5" fill="#FF6B6B"/>
  <circle cx="40" cy="305" r="5" fill="#4ECDC4"/>
  <circle cx="50" cy="305" r="5" fill="#FF6B6B"/>
  <circle cx="60" cy="305" r="5" fill="#4ECDC4"/>
  <circle cx="70" cy="305" r="5" fill="#FF6B6B"/>
  <circle cx="80" cy="305" r="5" fill="#4ECDC4"/>
  <circle cx="90" cy="305" r="5" fill="#FF6B6B"/>
  <circle cx="100" cy="305" r="5" fill="#4ECDC4"/>
  <circle cx="110" cy="305" r="5" fill="#FF6B6B"/>
  
  <!-- Frame 9 -->
  <rect x="10" y="330" width="80" height="30" fill="none" stroke="#444" stroke-width="1"/>
  <circle cx="20" cy="345" r="5" fill="#FF6B6B"/>
  <circle cx="30" cy="345" r="5" fill="#4ECDC4"/>
  <circle cx="40" cy="345" r="5" fill="#FF6B6B"/>
  <circle cx="50" cy="345" r="5" fill="#4ECDC4"/>
  <circle cx="60" cy="345" r="5" fill="#FF6B6B"/>
  <circle cx="70" cy="345" r="5" fill="#4ECDC4"/>
  <circle cx="80" cy="345" r="5" fill="#FF6B6B"/>
  <circle cx="90" cy="345" r="5" fill="#4ECDC4"/>
  <circle cx="100" cy="345" r="5" fill="#FF6B6B"/>
  <circle cx="110" cy="345" r="5" fill="#4ECDC4"/>
  
  <!-- Frame 10 -->
  <rect x="10" y="370" width="80" height="30" fill="none" stroke="#444" stroke-width="1"/>
  <circle cx="20" cy="385" r="5" fill="#4ECDC4"/>
  <circle cx="30" cy="385" r="5" fill="#FF6B6B"/>
  <circle cx="40" cy="385" r="5" fill="#4ECDC4"/>
  <circle cx="50" cy="385" r="5" fill="#FF6B6B"/>
  <circle cx="60" cy="385" r="5" fill="#4ECDC4"/>
  <circle cx="70" cy="385" r="5" fill="#FF6B6B"/>
  <circle cx="80" cy="385" r="5" fill="#4ECDC4"/>
  <circle cx="90" cy="385" r="5" fill="#FF6B6B"/>
  <circle cx="100" cy="385" r="5" fill="#4ECDC4"/>
  <circle cx="110" cy="385" r="5" fill="#FF6B6B"/>
</svg>